<svg id="Calque_1" data-name="Calque 1" xmlns="http://www.w3.org/2000/svg" viewBox="0 0 1594.1 1169.81"><defs><style>.cls-1{fill:#00a99d;}.cls-1,.cls-2{opacity:0.04;}.cls-2{fill:#a67226;}</style></defs><title>fond</title><circle class="cls-1" cx="357.79" cy="106.26" r="100.99"/><circle class="cls-2" cx="936.43" cy="-83.26" r="100.99" transform="translate(764.81 981.63) rotate(-64.42)"/><circle class="cls-2" cx="1086.79" cy="-52.27" r="100.99" transform="translate(822.31 1134.87) rotate(-64.42)"/><circle class="cls-1" cx="536.5" cy="-60.95" r="100.99" transform="translate(404.19 578.88) rotate(-51.05)"/><circle class="cls-1" cx="680.67" cy="-30.46" r="100.99" transform="translate(434.01 702.32) rotate(-51.05)"/><circle class="cls-1" cx="630.75" cy="10.36" r="100.99" transform="translate(385.41 680.06) rotate(-51.25)"/><circle class="cls-1" cx="535.78" cy="42.35" r="100.99" transform="translate(323.58 616.69) rotate(-51.05)"/><circle class="cls-1" cx="253.01" cy="574.36" r="100.99"/><circle class="cls-1" cx="620.38" cy="709.44" r="100.99"/><circle class="cls-1" cx="448.69" cy="897.54" r="100.99"/><circle class="cls-1" cx="381.78" cy="766.25" r="100.99"/><circle class="cls-1" cx="1180.17" cy="224.3" r="100.99" transform="translate(156.76 188.38) rotate(-0.2)"/><circle class="cls-1" cx="287.37" cy="595.14" r="100.99" transform="translate(155.47 185.27) rotate(-0.2)"/><circle class="cls-1" cx="98.67" cy="424.1" r="100.99" transform="translate(156.06 184.62) rotate(-0.2)"/><circle class="cls-1" cx="229.73" cy="356.74" r="100.99" transform="translate(156.3 185.07) rotate(-0.2)"/><circle class="cls-1" cx="256.08" cy="170.83" r="100.99" transform="translate(107.5 387.59) rotate(-39.76)"/><circle class="cls-1" cx="44.46" cy="142.31" r="100.99" transform="translate(76.79 245.63) rotate(-39.76)"/><circle class="cls-1" cx="162.12" cy="698.08" r="100.99"/><circle class="cls-1" cx="529.48" cy="833.16" r="100.99"/><circle class="cls-1" cx="357.79" cy="1021.26" r="100.99"/><circle class="cls-1" cx="290.88" cy="889.97" r="100.99"/><circle class="cls-1" cx="330.28" cy="351.02" r="100.99" transform="translate(156.32 185.42) rotate(-0.2)"/><circle class="cls-1" cx="196.48" cy="718.86" r="100.99" transform="translate(155.04 184.96) rotate(-0.2)"/><circle class="cls-1" cx="7.78" cy="547.82" r="100.99" transform="translate(155.63 184.3) rotate(-0.2)"/><circle class="cls-1" cx="138.84" cy="480.46" r="100.99" transform="translate(155.87 184.76) rotate(-0.2)"/><circle class="cls-1" cx="165.18" cy="294.55" r="100.99" transform="translate(7.34 358.06) rotate(-39.76)"/><circle class="cls-1" cx="-56.54" cy="229.41" r="100.99" transform="translate(-2.28 201.18) rotate(-39.76)"/><circle class="cls-2" cx="1165.71" cy="510.23" r="100.99" transform="translate(50.96 717.18) rotate(-24.66)"/><circle class="cls-2" cx="1135.19" cy="120.01" r="100.99" transform="translate(210.99 668.86) rotate(-24.66)"/><circle class="cls-2" cx="1273.37" cy="323.14" r="100.99" transform="translate(138.84 745.04) rotate(-24.66)"/><circle class="cls-2" cx="881.88" cy="282.15" r="100.99" transform="translate(120.63 581.15) rotate(-24.86)"/><circle class="cls-2" cx="1172.26" cy="271.74" r="100.99" transform="translate(151.92 702.26) rotate(-24.86)"/><circle class="cls-2" cx="1017.28" cy="191.41" r="100.99" transform="translate(171.33 629.66) rotate(-24.86)"/><circle class="cls-2" cx="1079.38" cy="402.13" r="100.99" transform="translate(88.5 675.29) rotate(-24.86)"/><circle class="cls-2" cx="899.44" cy="455.76" r="100.99" transform="translate(257.59 1254.59) rotate(-64.42)"/><circle class="cls-2" cx="1172.5" cy="736.19" r="100.99" transform="translate(159.81 1660.27) rotate(-64.42)"/><circle class="cls-2" cx="936.43" cy="831.74" r="100.99" transform="translate(-60.54 1501.63) rotate(-64.42)"/><circle class="cls-2" cx="932.75" cy="684.43" r="100.99" transform="translate(70.25 1414.6) rotate(-64.42)"/><circle class="cls-2" cx="1335.55" cy="193.99" r="100.99" transform="translate(198.4 759.2) rotate(-24.66)"/><circle class="cls-2" cx="1039.24" cy="306.14" r="100.99" transform="translate(125.13 649.52) rotate(-24.86)"/><circle class="cls-2" cx="1182.64" cy="510.12" r="100.99" transform="translate(52.67 728.71) rotate(-24.86)"/><circle class="cls-2" cx="1049.8" cy="486.74" r="100.99" transform="translate(315.09 1407.83) rotate(-64.42)"/><circle class="cls-2" cx="1255.86" cy="676.18" r="100.99" transform="translate(261.32 1701.35) rotate(-64.42)"/><circle class="cls-2" cx="1086.79" cy="862.73" r="100.99" transform="translate(-3.04 1654.87) rotate(-64.42)"/><circle class="cls-2" cx="1083.11" cy="715.42" r="100.99" transform="translate(127.75 1567.84) rotate(-64.42)"/><circle class="cls-1" cx="330.29" cy="487.01" r="100.99" transform="translate(-77.57 508.19) rotate(-39.76)"/><circle class="cls-1" cx="536.5" cy="854.05" r="100.99" transform="translate(-307.42 918.69) rotate(-51.05)"/><circle class="cls-1" cx="680.67" cy="884.54" r="100.99" transform="translate(-277.6 1042.14) rotate(-51.05)"/><circle class="cls-1" cx="497.42" cy="705.58" r="100.99" transform="translate(-206.47 833.16) rotate(-51.05)"/><circle class="cls-1" cx="641.59" cy="736.08" r="100.99" transform="translate(-176.65 956.61) rotate(-51.05)"/><circle class="cls-1" cx="591.67" cy="776.9" r="100.99" transform="matrix(0.63, -0.78, 0.78, 0.63, -227.03, 936.34)"/><circle class="cls-2" cx="837.43" cy="699.74" r="100.99" transform="translate(2.27 1337.32) rotate(-64.42)"/><circle class="cls-2" cx="833.75" cy="552.43" r="100.99" transform="translate(133.06 1250.28) rotate(-64.42)"/><circle class="cls-2" cx="362.28" cy="170.41" r="100.99" transform="translate(119.46 352.36) rotate(-24.86)"/><circle class="cls-2" cx="798.28" cy="137.41" r="100.99" transform="translate(173.74 532.59) rotate(-24.86)"/><circle class="cls-2" cx="1000.28" cy="80.41" r="100.99" transform="translate(216.41 612.23) rotate(-24.86)"/><circle class="cls-2" cx="697.28" cy="699.41" r="100.99" transform="translate(-71.88 542.21) rotate(-24.86)"/><circle class="cls-2" cx="266.28" cy="80.41" r="100.99" transform="translate(148.4 303.67) rotate(-24.86)"/></svg>